<?xml version="1.0" encoding="UTF-8"?>
<svg id="Layer_2" data-name="Layer 2" xmlns="http://www.w3.org/2000/svg" xmlns:xlink="http://www.w3.org/1999/xlink" viewBox="0 0 346 311.48">
  <defs>
    <style>
      .cls-1 {
        fill: url(#linear-gradient-2);
      }

      .cls-2 {
        fill: url(#linear-gradient-3);
      }

      .cls-3 {
        fill: url(#linear-gradient);
      }
    </style>
    <linearGradient id="linear-gradient" x1="-25.24" y1="250.66" x2="137.63" y2="185.91" gradientTransform="translate(-10.17 539.64) rotate(-.56) scale(2.15 -2.15) skewX(1.11)" gradientUnits="userSpaceOnUse">
      <stop offset="0" stop-color="#9b30ff"/>
      <stop offset=".09" stop-color="#952ff5"/>
      <stop offset=".24" stop-color="#882ddd"/>
      <stop offset=".43" stop-color="#7229b5"/>
      <stop offset=".66" stop-color="#53257d"/>
      <stop offset=".91" stop-color="#2c1f36"/>
      <stop offset="1" stop-color="#1d1d1b"/>
    </linearGradient>
    <linearGradient id="linear-gradient-2" x1="178.52" y1="99.12" x2="37.72" y2="162.48" gradientTransform="translate(-10.17 539.64) rotate(-.56) scale(2.15 -2.15) skewX(1.11)" gradientUnits="userSpaceOnUse">
      <stop offset="0" stop-color="#9b30ff"/>
      <stop offset=".1" stop-color="#8c2de4"/>
      <stop offset=".43" stop-color="#5d268f"/>
      <stop offset=".7" stop-color="#3a2150"/>
      <stop offset=".9" stop-color="#251e29"/>
      <stop offset="1" stop-color="#1d1d1b"/>
    </linearGradient>
    <linearGradient id="linear-gradient-3" x1="3.2" y1="161.37" x2="92.49" y2="174.52" xlink:href="#linear-gradient"/>
  </defs>
  <g id="Layer_1-2" data-name="Layer 1">
    <g>
      <path class="cls-3" d="M288.89,48.64c-11.72-6.1-24.87-8.19-37.82-9.91-32.4-4.29-64.25-11.66-96.28-17.93-27.37-5.36-54.77-10.55-82.26-15.27C53.7,2.3,28-5.92,10.72,7.15-.55,15.67-3.24,30.47,4.1,42.23c6.7,10.74,18.31,17.6,28.63,24.11,12.96,8.19,25.65,16.78,38.68,24.85,28.2,17.45,57.12,33.66,86.24,49.45,5.54,3,11.09,5.99,16.64,8.97,4.8,2.57,12.9,5.01,16.69,8.92,3.38,3.49,8.8,3.74,12.23,7.2,2.08,2.1,4.19,5.44,5.59,8.1,3.43,6.54,3.19,13.66-1.81,19.48,15.36-17.88,33.04-34.19,49.46-51.05,8.5-8.73,17.03-17.45,25.6-26.12,7.81-7.92,16.78-15.37,21.71-25.68,6.25-13.09,2.66-27.08-7.51-36.67-2.22-2.09-4.69-3.77-7.36-5.16h0Z"/>
      <path class="cls-1" d="M133.94,126.39s-24.6-9.44-50.76,22.28l-37.31,36.75s-36,35.69-24.22,56.89c11.2,20.16,23.98,25.58,44.77,30.87l24.07,4.68,28.83,5.38,89.39,15.2,69.52,9.44s31.73,3.39,31.88,3.4c11.85,1.26,25.21-3.93,32.62-13.89,0,0,14.19-19.08-16.67-38.59-16.99-10.75-35.62-18.79-53.03-28.84l-64.2-37.08s19.22-17.19-18.71-37.69l-56.2-28.8h0Z"/>
      <path class="cls-2" d="M199.6,158.84c-7.52-4.4-15.61-7.99-23.32-12.05-10.05-5.28-20.1-10.57-30.15-15.86-7.91-4.16-16.93-8.96-26.19-7.92-13.72,1.55-23.52,11.32-33.04,20.73-9.26,9.15-18.49,18.32-27.72,27.51-8.94,8.9-18.28,17.38-25.81,27.56-6.78,9.17-14.14,21.08-13.3,33,.19,2.76.81,5.57,1.93,8.07-1.19-3.2-.58-7.13.51-10.33,6.32-18.65,33.83-19.49,49.13-22.51-5.54,1.09-11.09,2.2-16.64,3.29,7.59-1.49,15.78-1.5,23.47-2.04,7.99-.56,15.99-.99,23.98-1.29,12.7-.47,25.42-.46,38.12-.57,12.04-.11,24.5-.37,36.52-2.05,14.05-1.96,36.34-6.49,36.99-25.05.34-9.47-7.21-16.24-14.47-20.49h0Z"/>
    </g>
  </g>
</svg>