<?xml version="1.0" encoding="UTF-8"?>
<svg id="Layer_1" data-name="Layer 1" xmlns="http://www.w3.org/2000/svg" width="302.92661" height="72.83554" xmlns:xlink="http://www.w3.org/1999/xlink" viewBox="0 0 302.92661 72.83554">
  <defs>
    <linearGradient id="linear-gradient" x1="-13.92737" y1="-.71406" x2="69.55417" y2="32.47907" gradientUnits="userSpaceOnUse">
      <stop offset="0" stop-color="#fff"/>
      <stop offset=".099" stop-color="#faf5ff"/>
      <stop offset=".26134" stop-color="#edf"/>
      <stop offset=".46697" stop-color="#dbb5ff"/>
      <stop offset=".70769" stop-color="#c07dff"/>
      <stop offset=".97524" stop-color="#9e36ff"/>
      <stop offset="1" stop-color="#9b30ff"/>
    </linearGradient>
    <linearGradient id="linear-gradient-2" x1="90.16526" y1="76.35857" x2="18.03003" y2="43.89771" gradientUnits="userSpaceOnUse">
      <stop offset="0" stop-color="#fff"/>
      <stop offset=".02309" stop-color="#fcf9ff"/>
      <stop offset=".38205" stop-color="#d3a3ff"/>
      <stop offset=".67537" stop-color="#b465ff"/>
      <stop offset=".8887" stop-color="#a23eff"/>
      <stop offset="1" stop-color="#9b30ff"/>
    </linearGradient>
    <linearGradient id="linear-gradient-3" x1=".45294" y1="44.61586" x2="46.28296" y2="37.86708" xlink:href="#linear-gradient"/>
    <linearGradient id="linear-gradient-4" x1="115.90596" y1="78.70552" x2="115.90596" y2="-2.22366" gradientUnits="userSpaceOnUse">
      <stop offset="0" stop-color="#9b30ff"/>
      <stop offset=".09912" stop-color="#9e38ff"/>
      <stop offset=".2546" stop-color="#a94eff"/>
      <stop offset=".44708" stop-color="#bb73ff"/>
      <stop offset=".66893" stop-color="#d4a5ff"/>
      <stop offset=".91268" stop-color="#f3e6ff"/>
      <stop offset="1" stop-color="#fff"/>
    </linearGradient>
    <linearGradient id="linear-gradient-5" x1="159.97951" y1="120.18328" x2="159.97951" y2="-29.49731" xlink:href="#linear-gradient-4"/>
    <linearGradient id="linear-gradient-6" x1="209.86782" y1="120.18328" x2="209.86782" y2="-29.49731" xlink:href="#linear-gradient-4"/>
    <linearGradient id="linear-gradient-7" x1="271.80923" y1="120.18328" x2="271.80923" y2="-29.49731" xlink:href="#linear-gradient-4"/>
  </defs>
  <g>
    <path d="M69.16778,11.8641c-2.81695-1.44063-5.96941-1.95779-9.07119-2.38552-7.76111-1.07023-15.39788-2.85141-23.07551-4.37974-6.55997-1.30626-13.12816-2.5734-19.71645-3.72944-4.51411-.79207-10.68142-2.75767-14.78664.23163C-.15841,3.54993-.76892,6.97195,1.01277,9.71557c1.62725,2.5058,4.42221,4.12144,6.90402,5.65514,3.11833,1.92705,6.175,3.94958,9.31135,5.84899,6.78697,4.11026,13.74198,7.93485,20.74562,11.66113,1.33272.70907,2.66735,1.41453,4.00309,2.1179,1.15457.60797,3.0977,1.1912,4.01296,2.10638.8164.81627,2.1149.88742,2.94153,1.69712.5028.4925,1.01525,1.27016,1.35589,1.8912.83533,1.52295.79453,3.17265-.38758,4.50894,3.63446-4.10855,7.82819-7.84569,11.71797-11.71497,2.01543-2.0048,4.03581-4.00464,6.06503-5.99548,1.85083-1.81583,3.98166-3.52308,5.13669-5.89998,1.46686-3.0186.57557-6.26956-1.88021-8.51449-.53549-.48951-1.13202-.88637-1.77136-1.21334Z" fill="url(#linear-gradient)"/>
    <path d="M32.27,29.52289s-5.90857-2.24595-12.09356,5.04474l-8.84558,8.43094s-8.53281,8.18735-5.6676,13.1286c2.72504,4.69951,5.79691,5.98427,10.78145,7.25769l5.77036,1.14025,6.91061,1.31302,21.42289,3.73173,16.65457,2.34961s7.59827.85953,7.63632.86384c2.83951.32112,6.02369-.8522,7.77434-3.14434.00008-.00011,3.35103-4.38761-4.07559-8.98276-4.09022-2.53077-8.56544-4.43851-12.75175-6.80798l-15.44521-8.74192s4.561-3.93905-4.561-8.77647l-13.51024-6.80695Z" fill="url(#linear-gradient-2)"/>
    <path d="M48.05113,37.19433c-1.80904-1.03664-3.75159-1.88691-5.60683-2.84547l-7.25016-3.74597c-1.90057-.98198-4.07198-2.11632-6.28503-1.89557-3.27862.32705-5.60253,2.56849-7.8592,4.7265-2.19473,2.09877-4.38368,4.20358-6.57006,6.31104-2.11764,2.04121-4.33401,3.98388-6.11419,6.32821-1.60109,2.10779-3.33412,4.85236-3.10794,7.61735.05246.6413.20606,1.2922.48117,1.8742-.29092-.74571-.15461-1.65389.09722-2.39251,1.46894-4.30739,8.051-4.43863,11.70374-5.10338-1.32435.24101-2.6487.48203-3.97305.72304,1.8131-.32937,3.7725-.31089,5.61089-.41849,1.91058-.11182,3.82298-.1925,5.73619-.24199,3.03937-.07862,6.07997-.0476,9.11996-.044,2.88141.00342,5.86129-.02952,8.73295-.3905,3.35581-.42184,8.67926-1.42057,8.79382-5.71999.05846-2.19414-1.76075-3.7804-3.50947-4.78248Z" fill="url(#linear-gradient-3)"/>
  </g>
  <g>
    <path d="M100.452,11.59394h34.37325v11.80336s.0338,0-3.26613,0c.09011,0-2.55258,0-3.09802,0,.76268,0-3.65492,0-1.52358,0,.76768,0-1.77863,0-3.36178,0-1.02738,0-.63094,0,.79789,0,3.39483,0-.27117,0-.0611,0h-3.36801c-.37781,0,.82192,0-.94342,0,1.07432,0-1.87937,0-2.81295,0,.50182,0-2.26633,0-3.26613,0-3.55442,0,.2833.33288-.46048.88767-2.33887.55479,1.55593,1.3315.46048,2.21917,3.15639.44383-1.14529.91541-.06169,1.40085-1.92721.48544-.55325.98476-.97813,1.48407-2.10752.49931.94877.99863-.38128,1.48407.49579.48544,1.29197.95702,1.4211,1.40085v3.10683h19.32666v11.75833h-19.32666v9.72984c0,.36794-.81446.73879-1.22169,1.11111-3.34011.37232-3.24517.74609,1.22169,1.11987.37318.37378-1.33114.74755-.84824,1.11987-4.68683.37232-1.04321.74317,1.65761,1.11111,4.91901.36794,1.70101.73295-.3423,1.09359-1.43865.18032-.93145.35954-2.58223.53748,1.76244.17794-3.79822.35461.85707.52982-.33328.35041,4.38157.69499,1.08048,1.03226-3.46809.33727-.95638.66725-.47792.98846-2.04562.64243,2.75181,1.24981.65554,1.81048,3.07116.28033-.88934.54898-.56277.80449-2.6661.25551-1.93627.49788,2.76909.72565-1.24956.45554.38392.85268-1.91961,1.17973-1.56584.65411-.28671,1.02788-.28671,1.02788h-13.47001v-1.53376c2.94424-.2469-2.05391-.5214,1.74324-.82185.65422-.30045.47708-.62686-2.59578-.97759,3.27397-.17536,1.80103-.35681.86814-.54413-2.5214-.18732.64122-.38051-2.95787-.57938.37191-.19887-.5051-.4034.27093-.61341-2.91785-.105,3.18142-.21137,2.69572-.31908.38187-.10771-.05164-.21676-.02438-.32713-5.96365-.22073.77131-.44673-1.50278-.67778-.5093-.23105,2.08643-.46717,1.79608-.70813-4.18827-.48193-3.37285-.98327-1.31141-1.5024,1.96882-.51912-1.84314-1.05602.79951-1.60907-2.52744-.55304-4.81567-1.12223.2186-1.70592,2.8701-.29185-2.29113-.58732,1.58756-.88621-.52919-.2989-1.58756-.60121-1.58756-.90675v-24.82193c-.63086-.7136-.46583-1.41977.28242-2.11665.08826-.69688,3.82341-1.38446,1.00136-2.0609-2.31188-.67644-1.37713-1.34172-2.36118-1.994-1.14011-.65228-.534-1.29155,1.07739-1.91595-1.11984-.6244-1.1808-1.23394-2.57439-1.82675-2.01111-.59281.93722-1.16889,1.0325-1.7264,3.05413-.5575,1.25853-1.09642.78275-1.6149-1.56607-.51848-.5144-1.01651.75914-1.49225v-6.18455Z" fill="url(#linear-gradient-4)"/>
    <path d="M144.14997,11.59394h13.47001v15.08102c3.55454.6982.34023,1.40803.64632,2.12659-.51909.35928.45955.72074,2.49404,1.08402,1.21263.36328.14817.72838-1.34153,1.09493,3.17489.73311,1.25407,1.47203-.91252,2.21386-4.5415.37092-1.65878.74256-2.81283,1.11457.31087.37201-1.28187.74438,1.92651,1.11675.89802.74474-.33645,1.48948.5492,2.23132,3.10757.37092,2.24936.74111.71167,1.1102-.62036.3691-1.63738.73711-1.66836,1.10366.06792.73311.16979,1.46039.40749,2.17895v17.2076h21.57911v11.80336h-35.04913v-1.66507c0-.5352.17403-1.18934.26105-1.94754,1.13381-.18955,1.99218-.38561,2.29553-.58793s.25559-.41093-1.03457-.62556c-3.85165-.10732,1.89748-.21615,2.40448-.32646s.51524-.2221-.58809-.33534c-1.36087-.22649-2.71047-.45878-3.3384-.69664,1.3378-.47573,1.17255-.97377.54582-1.49225,5.3938-.51848,2.70256-1.05739-.39187-1.6149,1.04508-.5575-.06415-1.13359-.15395-1.7264v-22.88434c3.12806-.33386-.79711-.66701-.61689-.99927-1.8239-.33226.85342-.66363.48062-.99394,1.15748-.66062-3.19129-1.317-.70175-1.96774.28515-.65075,1.67133-1.29587.25104-1.93398-3.31539-.31905-1.6134-.63636-1.93964-.95173-2.21332-.31538.26631-.62883,2.52662-.94018,3.65396-.6227-.81934-1.23701.96685-1.84154-.32228-.60453-.96685-1.19929-.96685-1.78288v-14.15314Z" fill="url(#linear-gradient-5)"/>
    <path d="M220.6006,11.59394h13.47069v33.82961c5.43889.42287,3.08388.80345.99499,1.13646,3.71262.33301,2.15549.61845-2.41434.85103-4.09294.46516,1.32207.71888,1.41935.71888,3.17092.81594,1.26978,1.61375.18189,2.39342-.95818.19492-1.26737.3887-3.38732.58135.61161.19265,5.4771.38416,1.61454.57455,1.21167.38076,7.3223.75699,1.27039,1.12868-1.68884.18585-4.44648.37056-1.52297.55413-2.55961.18358,7.42189.36602.47469.54733,2.69031.18131,1.32999.36148,3.40817.54052-2.8933.17904,4.15029.35694-1.51728.53371-1.67942.35354-1.46942.70254-2.84656,1.047-2.28769.34446-3.98157.68439,1.04265,1.01977-4.53626.67077-.45389,1.32337-.72086,1.95781-.26697.63444-.56062,1.25072-.88095,1.84882-1.92264,3.58929-4.67015,6.36727-8.24454,8.33461-3.5744,1.96599-7.83888,2.95067-12.79414,2.95067-4.98573,0-9.2807-.98469-12.88489-2.95067-3.60352-1.96734-6.35982-4.74532-8.26621-8.33461-1.90774-3.58862-2.86128-7.83144-2.86128-12.7271v-9.47229c.927-.3383,1.20157-.68188-1.9156-1.03009-1.40309-.34821.95648-.70104.64879-1.05784.96565-.3568-3.64419-.71756-.61548-1.08162,2.52393-.36406,4.24582-.73143,1.09219-1.10144-2.26467-.37001-2.29882-.74267-2.03501-1.1173-3.38212-.37464,3.0923-.75126,1.80885-1.1292-.44578-.75588,1.27654-1.51705,1.01627-2.27821,2.9136-.38058,3.22979-.76117,2.09668-1.14109-1.03703-.37992,1.14527-.75918-2.21468-1.13712-3.30843-.75588-.413-1.50647-.65223-2.2465.12837-.74002.32093-1.46947.77023-2.18306v-11.56021h13.42532v17.90771c1.25387.37308,1.09158.74615,1.51632,1.11858.29918.37243.67053.74421-2.57244,1.1147,2.2436.37049.18556.73968-2.21486,1.10693-.45005.36725.49934.73255,1.57996,1.09527-1.52964.72543,2.22444,1.44049.84495,2.14001.18841.69952.37701,1.38349.84606,2.04674v9.28547c-.06129.33785-1.81058.66914.57508.99387.26996.32473,3.44683.64289-.46678.95449-4.9312.3116,1.99969.61663-1.30052.91509-2.00836.29846-4.80097.59036,1.51322.87568-4.85667.57065-2.55967,1.11501.36041,1.63307,4.95088.25903,5.81963.51148.82254.75735-3.82139.24587,1.68888.48517-.21994.71788,4.58778.23288-.59231.45858.64124.67709,5.10965.21852,2.45755.42985,1.78071.63402-1.92266.40832-1.16823.78795-.86229,1.13892.61187.70194,1.31585,1.28927,2.11227,1.76231,1.59148.94608,3.46875,1.41946,5.63113,1.41946,2.13191,0,3.97938-.47338,5.54106-1.41946.78084-.47304,3.87015-1.06037,2.0779-1.76231,3.12854-.17549.78987-.35814,1.88612-.54795-.98054-.18982.23892-.38681-.03151-.59097-.98377-.40832-2.90946-.84535-.30597-1.31111-2.24911-.46542-2.40829-.95717.17849-1.47523,5.91848-.51806.56054-1.06242.78452-1.63307-.26383-.28532,5.66959-.57722,2.01743-.87568.59354-.29846-5.65194-.6035-1.92166-.91509,2.40807-.3116,3.2091-.62976-1.75496-.95449-.38392-.32473-4.69268-.65602,1.98019-.99387-1.92208,0,5.02652-.06218,2.76481-.18136-.2919-.11918,5.94414-.29535-1.10673-.52334.10246-.22799-14.22573-.5078-3.25114-.83424-4.13559-.32644.12332-.69952,1.59306-1.11405V11.59394Z" fill="url(#linear-gradient-6)"/>
    <path d="M279.16502,39.07507s6.4128,9.17957,12.36755,17.70346l1.1828,1.69312c1.00001.27976,2.27272.55806,2.05548.83454-1.07232.27648-3.089.55114.04742.82361-.61803.54495-4.35921,1.08115.8939,1.6057.68179.13114.42912.26154,2.45857.39118-1.51112.12963-.88866.25849.19557.38653,5.55287.25608-4.20248.50888.05234.75804-.3918.49832-2.59268.98207-1.3385,1.44833,3.89558.46626,1.68791.91504-.88486,1.34342,1.52769.42838,3.65018.83636,1.57903,1.22103,1.51506.76934-.72203,1.44542,2.49799,2.00493,6.04286.55952-.03043,1.00247-.68966,1.30554.74563.30307,1.92744.46626,1.92744.46626h-17.56926l-1.42905-2.15992c-.39671-.3323-1.22176-.69574-1.78392-1.08515-2.45605-.38941-2.65492-.80478-.20662-1.24092-1.76284-.43614-2.97013-.89304-1.34578-1.36553-1.21929-.47248-4.9183-.96054-.07142-1.45899-.77485-.24922,5.27591-.50104,2.42301-.7548-2.78004-.25376-2.07868-.50948-2.44046-.76649-1.60086-.51402-1.67267-1.03323-2.0162-1.55244-3.43523-5.19212-6.87045-10.38424-6.87045-10.38424l-13.28987,20.76847h-16.2182l7.20516-10.93097,1.09297-1.65815c.80791-.55952,1.23554-1.12486,1.53201-1.69312-5.97511-.56826,4.29143-1.13943.74501-1.71061-.6271-.14279,1.75267-.28559,2.3711-.42833,1.22159-.14275-1.00854-.28545-.17667-.42806-1.06003-.28522-.5433-.57008-.58001-.85421-.88794-.56826,2.86572-1.1336.5957-1.69312,1.39182-.13988,1.92751-.27939,2.42206-.4185-7.86023-.13911,4.36286-.2778.24895-.41604.35479-.27648,3.61286-.55114.23098-.82361,2.94224-.54495.39939-1.08115-.16096-1.6057.49495-1.04909.76262-2.05156,1.37729-2.98409l4.1798-6.34119s-7.47911-10.73482-13.08844-18.78593l-1.09417-1.57046c-1.42072-.50891-3.2358-1.00192-2.53842-1.47504-.0061-.47313-.12303-.92637.87044-1.35577,2.66762-.42939-1.27044-.83493-.71794-1.21264-3.46802-.37771-.09282-.72758-1.15974-1.04565,1.13578-1.27227-.03841-2.03564-1.41826-2.03564-.43542,0,3.27196,0,1.20549,0,.41312,0-1.06306,0,3.23292,0-.50278,0-.47962,0,2.87474,0-1.42719,0,.58249,0,1.34531,0,2.47488,0-.82443,0,1.73969,0-1.30645,0,3.19458,0,2.28302,0,.05528,0,2.38597,0,2.11485,0,.32005,0,2.89886,0,1.94539,0,.35126,0,1.84847,0,.37816,0,.10222,0,2.43751.18576,2.07438.51857.13043.33281.65398.81268-.84191,1.40091,2.70759.58823,2.08802,1.28481,2.37991,2.05105-3.94871.76624-1.55024,1.60214.52236,2.469,3.27621.86686-2.59378,1.76468,1.17003,2.65476.74969.89008,1.67261,1.77242,2.20933,2.60832.64407,1.00308,1.24519,1.93929,1.76044,2.74175-.30953.40123.7475.76903,1.42154,1.09503.13712.326-4.14643.61021-.87638.84426-.86437.4681-2.23117.73559,1.17235.73559,3.36604,0-2.61185-.26749,1.40259-.73559.23346-.23405.6543-.51826.93353-.84426-2.54107-.326-1.32801-.6938-.63967-1.09503.50893-.80246,1.10269-1.73867,1.73886-2.74175.53014-.8359,1.30156-1.71824,1.97197-2.60832.88666-.44504,2.34442-.89201,1.6144-1.33609-.34979-.44407-.04933-.88524-.24845-1.31867,2.17891-.86686,1.67562-1.70276.69792-2.469,3.19759-.76624,1.74516-1.46283,2.16877-2.05105-3.24018-1.17645,2.98487-1.91947,1.21736-1.91947-1.86166,0,2.00647,0,.79265,0h1.93639c1.28065,0,2.56614,0,1.52256,0,2.44894,0-.69748,0,3.09711,0,3.39662,0,.74814,0,2.97159,0-2.33243,0,3.16635,0,1.82712,0,1.89342,0,.07732,0,1.35106,0,1.57651,0,3.788,0,2.75084,0-.48709,0,1.06993,0,.14969,0-3.16298,0,1.25653.16036-.73447.45658,1.60665.29622,1.29526.7283-.44987,1.27174,1.11478.27172.05913.57128-1.73912.89562-.58677.32434-1.91259.67345-.65128,1.04429,2.99694.37083-1.34313.76338-.77392,1.17458.82415.4112-1.43635.84105.14852,1.2865l-1.94287,2.83525c-.67916.99111-1.38428,2.02009-2.09854,3.06242l-1.17425,1.7136c-.24149.57252-1.08968,1.14505-2.10164,1.71359-2.06113.56855,3.10233,1.13312-.12553,1.68974,3.10993.55662,2.7406,1.10529.4959,1.64203-1.05265.26837-2.93472.53376-2.4135.79567.3028.26191,1.75587.52034-.38877.7748-2.03874.50891-3.08472,1.00192-1.28996,1.47504,1.52601.47313,3.15613.92637-.89103,1.35577,1.38976.2147,1.216.42343,2.2032.6257.55156.20227-3.1131.39808-2.53786.58694-2.09768.37771-1.78594.72758-.97169,1.04565l-1.39493,2.03564Z" fill="url(#linear-gradient-7)"/>
  </g>
</svg>