<?xml version="1.0" encoding="UTF-8"?>
<svg id="Layer_1" data-name="Layer 1" xmlns="http://www.w3.org/2000/svg" width="719.647" height="173.032" xmlns:xlink="http://www.w3.org/1999/xlink" viewBox="0 0 719.647 173.032">
  <defs>
    <linearGradient id="linear-gradient" x1="-33.087" y1="-1.696" x2="165.236" y2="77.159" gradientUnits="userSpaceOnUse">
      <stop offset="0" stop-color="#9b30ff"/>
      <stop offset=".092" stop-color="#952ff5"/>
      <stop offset=".243" stop-color="#882ddd"/>
      <stop offset=".435" stop-color="#7229b5"/>
      <stop offset=".659" stop-color="#53257d"/>
      <stop offset=".908" stop-color="#2c1f36"/>
      <stop offset="1" stop-color="#1d1d1b"/>
    </linearGradient>
    <linearGradient id="linear-gradient-2" x1="214.201" y1="181.401" x2="42.833" y2="104.286" gradientUnits="userSpaceOnUse">
      <stop offset="0" stop-color="#9b30ff"/>
      <stop offset=".098" stop-color="#8c2de4"/>
      <stop offset=".429" stop-color="#5d268f"/>
      <stop offset=".7" stop-color="#3a2150"/>
      <stop offset=".897" stop-color="#251e29"/>
      <stop offset="1" stop-color="#1d1d1b"/>
    </linearGradient>
    <linearGradient id="linear-gradient-3" x1="1.076" y1="105.992" x2="109.952" y2="89.959" xlink:href="#linear-gradient"/>
    <linearGradient id="linear-gradient-4" x1="275.352" y1="186.977" x2="275.352" y2="-5.283" gradientUnits="userSpaceOnUse">
      <stop offset="0" stop-color="#9b30ff"/>
      <stop offset=".093" stop-color="#962ff6"/>
      <stop offset=".238" stop-color="#8a2de0"/>
      <stop offset=".417" stop-color="#752abb"/>
      <stop offset=".625" stop-color="#592688"/>
      <stop offset=".852" stop-color="#362048"/>
      <stop offset="1" stop-color="#1d1d1b"/>
    </linearGradient>
    <linearGradient id="linear-gradient-5" x1="380.055" y1="285.513" x2="380.055" y2="-70.075" xlink:href="#linear-gradient-4"/>
    <linearGradient id="linear-gradient-6" x1="498.572" y1="285.513" x2="498.572" y2="-70.075" xlink:href="#linear-gradient-4"/>
    <linearGradient id="linear-gradient-7" x1="645.723" y1="285.513" x2="645.723" y2="-70.075" xlink:href="#linear-gradient-4"/>
  </defs>
  <g>
    <path d="M164.318,28.185c-6.692-3.422-14.181-4.651-21.55-5.667-18.438-2.543-36.58-6.774-54.819-10.405-15.584-3.103-31.188-6.113-46.839-8.86C30.386,1.372,15.734-3.298,5.982,3.804-.376,8.433-1.827,16.563,2.406,23.081c3.866,5.953,10.506,9.791,16.402,13.435,7.408,4.578,14.67,9.383,22.12,13.895,16.123,9.765,32.646,18.85,49.284,27.703,3.166,1.685,6.337,3.36,9.51,5.031,2.743,1.444,7.359,2.83,9.533,5.004,1.939,1.939,5.024,2.108,6.988,4.032,1.194,1.17,2.412,3.017,3.221,4.493,1.984,3.618,1.888,7.537-.921,10.712,8.634-9.76,18.597-18.639,27.838-27.831,4.788-4.763,9.588-9.514,14.408-14.243,4.397-4.314,9.459-8.37,12.203-14.016,3.485-7.171,1.367-14.894-4.467-20.227-1.272-1.163-2.689-2.106-4.208-2.882Z" fill="url(#linear-gradient)"/>
    <path d="M76.662,70.136s-14.037-5.336-28.73,11.985l-21.014,20.029s-20.271,19.45-13.464,31.189c6.474,11.164,13.771,14.217,25.613,17.242l13.708,2.709,16.417,3.119,50.893,8.865,39.565,5.582s18.051,2.042,18.141,2.052c6.746.763,14.31-2.025,18.469-7.47,0,0,7.961-10.423-9.682-21.34-9.717-6.012-20.348-10.544-30.294-16.173,0,0-36.692-20.768-36.692-20.768,0,0,10.835-9.358-10.835-20.85l-32.096-16.171Z" fill="url(#linear-gradient-2)"/>
    <path d="M114.153,88.361c-4.298-2.463-8.912-4.483-13.32-6.76-5.741-2.966-11.483-5.933-17.224-8.899-4.515-2.333-9.674-5.028-14.931-4.503-7.789.777-13.31,6.102-18.671,11.228-5.214,4.986-10.414,9.986-15.608,14.993-5.031,4.849-10.296,9.464-14.525,15.034-3.804,5.007-7.921,11.527-7.383,18.096.125,1.524.49,3.07,1.143,4.452-.691-1.772-.367-3.929.231-5.684,3.49-10.233,19.126-10.545,27.804-12.124-3.146.573-6.292,1.145-9.439,1.718,4.307-.782,8.962-.739,13.33-.994,4.539-.266,9.082-.457,13.627-.575,7.22-.187,14.444-.113,21.666-.105,6.845.008,13.924-.07,20.746-.928,7.972-1.002,20.619-3.375,20.891-13.589.139-5.213-4.183-8.981-8.337-11.361Z" fill="url(#linear-gradient-3)"/>
  </g>
  <g>
    <path d="M238.639,27.543h81.659v28.041s.08,0-7.759,0c.214,0-6.064,0-7.36,0,1.812,0-8.683,0-3.619,0,1.824,0-4.225,0-7.986,0-2.441,0-1.499,0,1.896,0,8.065,0-.644,0-.145,0h-8.001c-.898,0,1.953,0-2.241,0,2.552,0-4.465,0-6.683,0,1.192,0-5.384,0-7.759,0-8.444,0,.673.791-1.094,2.109-5.556,1.318,3.696,3.163,1.094,5.272,7.498,1.054-2.721,2.175-.147,3.328-4.578,1.153-1.314,2.339-2.324,3.526-5.007,1.186,2.254,2.372-.906,3.526,1.178,1.153,3.069,2.274,3.376,3.328v7.381h45.913v27.934h-45.913v23.115c0,.874-1.935,1.755-2.902,2.64-7.935.884-7.709,1.772,2.902,2.66.887.888-3.162,1.776-2.015,2.66-11.134.884-2.478,1.766,3.938,2.64,11.686.874,4.041,1.741-.813,2.598-3.418.428-2.213.854-6.134,1.277,4.187.423-9.023.842,2.036,1.259-.792.832,10.409,1.651,2.567,2.452-8.239.801-2.272,1.585-1.135,2.348-4.86,1.526,6.537,2.969,1.557,4.301,7.296.666-2.113,1.304-1.337,1.911-6.334.607-4.6,1.183,6.578,1.724-2.969,1.082.912,2.026-4.56,2.803-3.72,1.554-.681,2.442-.681,2.442h-32v-3.644c6.994-.587-4.879-1.239,4.141-1.952,1.554-.714,1.133-1.489-6.167-2.322,7.778-.417,4.279-.848,2.062-1.293-5.99-.445,1.523-.904-7.027-1.376.884-.472-1.2-.958.644-1.457-6.932-.249,7.558-.502,6.404-.758.907-.256-.123-.515-.058-.777-14.168-.524,1.832-1.061-3.57-1.61-1.21-.549,4.957-1.11,4.267-1.682-9.95-1.145-8.013-2.336-3.115-3.569,4.677-1.233-4.379-2.509,1.899-3.823-6.004-1.314-11.44-2.666.519-4.053,6.818-.693-5.443-1.395,3.771-2.105-1.257-.71-3.771-1.428-3.771-2.154v-58.968c-1.499-1.695-1.107-3.373.671-5.028.21-1.656,9.083-3.289,2.379-4.896-5.492-1.607-3.272-3.187-5.609-4.737-2.709-1.55-1.269-3.068,2.56-4.552-2.66-1.483-2.805-2.931-6.116-4.34-4.778-1.408,2.226-2.777,2.453-4.101,7.256-1.324,2.99-2.605,1.86-3.836-3.72-1.232-1.222-2.415,1.803-3.545v-14.692Z" fill="url(#linear-gradient-4)"/>
    <path d="M342.45,27.543h32v35.827c8.444,1.659.808,3.345,1.535,5.052-1.233.854,1.092,1.712,5.925,2.575,2.881.863.352,1.73-3.187,2.601,7.542,1.742,2.979,3.497-2.168,5.259-10.789.881-3.941,1.764-6.682,2.648.739.884-3.045,1.768,4.577,2.653,2.133,1.769-.799,3.538,1.305,5.301,7.383.881,5.344,1.761,1.691,2.637-1.474.877-3.89,1.751-3.963,2.622.161,1.742.403,3.469.968,5.176v40.879h51.264v28.041h-83.264v-3.956c0-1.271.413-2.825.62-4.627,2.694-.45,4.733-.916,5.453-1.397s.607-.976-2.458-1.486c-9.15-.255,4.508-.513,5.712-.776s1.224-.528-1.397-.797c-3.233-.538-6.439-1.09-7.931-1.655,3.178-1.13,2.786-2.313,1.297-3.545,12.814-1.232,6.42-2.512-.931-3.836,2.483-1.324-.152-2.693-.366-4.101v-54.365c7.431-.793-1.894-1.585-1.466-2.374-4.333-.789,2.027-1.577,1.142-2.361,2.75-1.569-7.581-3.129-1.667-4.675.677-1.546,3.97-3.079.596-4.594-7.876-.758-3.833-1.512-4.608-2.261-5.258-.749.633-1.494,6.002-2.234,8.681-1.479-1.946-2.939,2.297-4.375-.766-1.436-2.297-2.849-2.297-4.235V27.543Z" fill="url(#linear-gradient-5)"/>
    <path d="M524.069,27.543h32.002v80.367c12.921,1.005,7.326,1.909,2.364,2.7,8.82.791,5.121,1.469-5.736,2.022-9.723,1.105,3.141,1.708,3.372,1.708,7.533,1.938,3.017,3.834.432,5.686-2.276.463-3.011.923-8.047,1.381,1.453.458,13.012.913,3.836,1.365,2.879.905,17.395,1.798,3.018,2.681-4.012.442-10.563.88-3.618,1.316-6.081.436,17.632.87,1.128,1.3,6.391.431,3.16.859,8.097,1.284-6.873.425,9.86.848-3.605,1.268-3.99.84-3.491,1.669-6.762,2.487-5.435.818-9.459,1.626,2.477,2.423-10.777,1.594-1.078,3.144-1.713,4.651-.634,1.507-1.332,2.971-2.093,4.392-4.568,8.527-11.095,15.126-19.586,19.8-8.492,4.67-18.622,7.01-30.394,7.01-11.844,0-22.048-2.339-30.61-7.01-8.561-4.674-15.109-11.273-19.638-19.8-4.532-8.525-6.797-18.605-6.797-30.235v-22.503c2.202-.804,2.855-1.62-4.551-2.447-3.333-.827,2.272-1.665,1.541-2.513,2.294-.848-8.657-1.705-1.462-2.57,5.996-.865,10.087-1.738,2.595-2.617-5.38-.879-5.461-1.764-4.834-2.654-8.035-.89,7.346-1.785,4.297-2.683-1.059-1.796,3.033-3.604,2.414-5.412,6.922-.904,7.673-1.808,4.981-2.711-2.464-.903,2.721-1.804-5.261-2.701-7.86-1.796-.981-3.579-1.549-5.337.305-1.758.762-3.491,1.83-5.186v-27.463h31.894v42.542c2.979.886,2.593,1.773,3.602,2.657.711.885,1.593,1.768-6.111,2.648,5.33.88.441,1.757-5.262,2.63-1.069.872,1.186,1.74,3.753,2.602-3.634,1.723,5.284,3.422,2.007,5.084.448,1.662.896,3.287,2.01,4.862v22.059c-.146.803-4.301,1.59,1.366,2.361.641.771,8.188,1.527-1.109,2.268-11.715.74,4.751,1.465-3.09,2.174-4.771.709-11.405,1.402,3.595,2.08-11.538,1.356-6.081,2.649.856,3.88,11.762.615,13.825,1.215,1.954,1.799-9.078.584,4.012,1.153-.522,1.705,10.899.553-1.407,1.089,1.523,1.609,12.139.519,5.838,1.021,4.23,1.506-4.568.97-2.775,1.872-2.049,2.706,1.454,1.668,3.126,3.063,5.018,4.187,3.781,2.248,8.241,3.372,13.378,3.372,5.065,0,9.454-1.125,13.164-3.372,1.855-1.124,9.194-2.519,4.936-4.187,7.432-.417,1.876-.851,4.481-1.302-2.329-.451.568-.919-.075-1.404-2.337-.97-6.912-2.008-.727-3.115-5.343-1.106-5.721-2.274.424-3.505,14.06-1.231,1.332-2.524,1.864-3.88-.627-.678,13.469-1.371,4.793-2.08,1.41-.709-13.427-1.434-4.565-2.174,5.721-.74,7.624-1.496-4.169-2.268-.912-.771-11.148-1.558,4.704-2.361-4.566,0,11.941-.148,6.568-.431-.693-.283,14.121-.702-2.629-1.243.243-.542-33.795-1.206-7.724-1.982-9.825-.776.293-1.662,3.785-2.647V27.543Z" fill="url(#linear-gradient-6)"/>
    <path d="M663.198,92.829s15.235,21.807,29.381,42.057c.943,1.35,1.881,2.693,2.81,4.022,2.376.665,5.399,1.326,4.883,1.983-2.547.657-7.338,1.309.113,1.957-1.468,1.295-10.356,2.568,2.124,3.815,1.62.312,1.019.621,5.841.929-3.59.308-2.111.614.465.918,13.192.608-9.984,1.209.124,1.801-.931,1.184-6.159,2.333-3.18,3.441,9.255,1.108,4.01,2.174-2.102,3.191,3.629,1.018,8.672,1.987,3.751,2.901,3.599,1.828-1.715,3.434,5.934,4.763,14.356,1.329-.072,2.382-1.638,3.101,1.771.72,4.579,1.108,4.579,1.108h-41.738l-3.395-5.131c-.942-.789-2.902-1.653-4.238-2.578-5.835-.925-6.307-1.912-.491-2.948-4.188-1.036-7.056-2.122-3.197-3.244-2.897-1.122-11.684-2.282-.17-3.466-1.841-.592,12.534-1.19,5.756-1.793-6.604-.603-4.938-1.21-5.798-1.821-3.803-1.221-3.974-2.455-4.79-3.688-8.161-12.335-16.322-24.669-16.322-24.669l-31.572,49.339h-38.529s7.73-11.728,17.117-25.968c.853-1.295,1.72-2.61,2.597-3.939,1.919-1.329,2.935-2.672,3.64-4.022-14.195-1.35,10.195-2.707,1.77-4.064-1.49-.339,4.164-.678,5.633-1.018,2.902-.339-2.396-.678-.42-1.017-2.518-.678-1.291-1.354-1.378-2.029-2.109-1.35,6.808-2.693,1.415-4.022,3.306-.332,4.579-.664,5.754-.994-18.673-.33,10.365-.66.591-.988.843-.657,8.583-1.309.549-1.957,6.99-1.295.949-2.568-.382-3.815,1.176-2.492,1.812-4.874,3.272-7.089,5.841-8.861,9.93-15.064,9.93-15.064l-31.094-44.629-2.599-3.731c-3.375-1.209-7.687-2.38-6.03-3.504-.014-1.124-.292-2.201,2.068-3.221,6.337-1.02-3.018-1.984-1.706-2.881-8.239-.897-.22-1.728-2.755-2.484,2.698-3.022-.091-4.836-3.369-4.836-1.034,0,7.773,0,2.864,0,.981,0-2.525,0,7.68,0-1.194,0-1.139,0,6.829,0-3.391,0,1.384,0,3.196,0,5.879,0-1.959,0,4.133,0-3.104,0,7.589,0,5.424,0,.131,0,5.668,0,5.024,0,.76,0,6.887,0,4.622,0,.834,0,4.391,0,.898,0,.243,0,5.791.441,4.928,1.232.31.791,1.554,1.931-2,3.328,6.432,1.397,4.96,3.052,5.654,4.873-9.381,1.82-3.683,3.806,1.241,5.865,7.783,2.059-6.162,4.192,2.78,6.307,1.781,2.115,3.974,4.211,5.249,6.196,1.53,2.383,2.958,4.607,4.182,6.513-.735.953,1.776,1.827,3.377,2.601.326.774-9.85,1.45-2.082,2.006-2.053,1.112-5.3,1.748,2.785,1.748,7.997,0-6.205-.635,3.332-1.748.555-.556,1.554-1.231,2.218-2.006-6.037-.774-3.155-1.648-1.52-2.601,1.209-1.906,2.62-4.13,4.131-6.513,1.259-1.986,3.092-4.082,4.685-6.196,2.106-1.057,5.57-2.119,3.835-3.174-.831-1.055-.117-2.103-.59-3.133,5.176-2.059,3.981-4.045,1.658-5.865,7.596-1.82,4.146-3.475,5.152-4.873-7.698-2.795,7.091-4.56,2.892-4.56-4.423,0,4.767,0,1.883,0h4.6c3.042,0,6.096,0,3.617,0,5.818,0-1.657,0,7.358,0,8.069,0,1.777,0,7.059,0-5.541,0,7.522,0,4.341,0,4.498,0,.184,0,3.21,0,3.745,0,8.999,0,6.535,0-1.157,0,2.542,0,.356,0-7.514,0,2.985.381-1.745,1.085,3.817.704,3.077,1.73-1.069,3.021,2.648.646.14,1.357-4.132,2.128-1.394.771-4.544,1.6-1.547,2.481,7.12.881-3.191,1.814-1.839,2.79,1.958.977-3.412,1.998.353,3.056-1.45,2.116-3.002,4.381-4.616,6.736l-4.985,7.275c-.926,1.351-1.858,2.711-2.79,4.071-.574,1.36-2.589,2.72-4.993,4.071-4.897,1.351,7.37,2.692-.298,4.014,7.388,1.322,6.511,2.626,1.178,3.901-2.501.638-6.972,1.268-5.734,1.89.719.622,4.171,1.236-.924,1.841-4.843,1.209-7.328,2.38-3.064,3.504,3.625,1.124,7.498,2.201-2.117,3.221,3.302.51,2.889,1.006,5.234,1.486,1.31.481-7.396.946-6.029,1.394-4.983.897-4.243,1.728-2.308,2.484-2.071,3.022-3.314,4.836-3.314,4.836Z" fill="url(#linear-gradient-7)"/>
  </g>
</svg>