<?xml version="1.0" encoding="UTF-8"?>
<svg id="Layer_1" data-name="Layer 1" xmlns="http://www.w3.org/2000/svg" width="302.927" height="72.836" xmlns:xlink="http://www.w3.org/1999/xlink" viewBox="0 0 302.927 72.836">
  <defs>
    <linearGradient id="linear-gradient" x1="-13.927" y1="-.714" x2="69.554" y2="32.479" gradientUnits="userSpaceOnUse">
      <stop offset="0" stop-color="#fff"/>
      <stop offset=".099" stop-color="#faf5ff"/>
      <stop offset=".261" stop-color="#edf"/>
      <stop offset=".467" stop-color="#dbb5ff"/>
      <stop offset=".708" stop-color="#c07dff"/>
      <stop offset=".975" stop-color="#9e36ff"/>
      <stop offset="1" stop-color="#9b30ff"/>
    </linearGradient>
    <linearGradient id="linear-gradient-2" x1="90.165" y1="76.359" x2="18.03" y2="43.898" gradientUnits="userSpaceOnUse">
      <stop offset="0" stop-color="#fff"/>
      <stop offset=".023" stop-color="#fcf9ff"/>
      <stop offset=".382" stop-color="#d3a3ff"/>
      <stop offset=".675" stop-color="#b465ff"/>
      <stop offset=".889" stop-color="#a23eff"/>
      <stop offset="1" stop-color="#9b30ff"/>
    </linearGradient>
    <linearGradient id="linear-gradient-3" x1=".453" y1="44.616" x2="46.283" y2="37.867" xlink:href="#linear-gradient"/>
    <linearGradient id="linear-gradient-4" x1="115.906" y1="78.706" x2="115.906" y2="-2.224" gradientUnits="userSpaceOnUse">
      <stop offset="0" stop-color="#9b30ff"/>
      <stop offset=".099" stop-color="#9e38ff"/>
      <stop offset=".255" stop-color="#a94eff"/>
      <stop offset=".447" stop-color="#bb73ff"/>
      <stop offset=".669" stop-color="#d4a5ff"/>
      <stop offset=".913" stop-color="#f3e6ff"/>
      <stop offset="1" stop-color="#fff"/>
    </linearGradient>
    <linearGradient id="linear-gradient-5" x1="159.98" y1="120.183" x2="159.98" y2="-29.497" xlink:href="#linear-gradient-4"/>
    <linearGradient id="linear-gradient-6" x1="209.868" y1="120.183" x2="209.868" y2="-29.497" xlink:href="#linear-gradient-4"/>
    <linearGradient id="linear-gradient-7" x1="271.809" y1="120.183" x2="271.809" y2="-29.497" xlink:href="#linear-gradient-4"/>
  </defs>
  <g>
    <path d="M69.168,11.864c-2.817-1.441-5.969-1.958-9.071-2.386-7.761-1.07-15.398-2.851-23.076-4.38-6.56-1.306-13.128-2.573-19.716-3.729-4.514-.792-10.681-2.758-14.787.232C-.158,3.55-.769,6.972,1.013,9.716c1.627,2.506,4.422,4.121,6.904,5.655,3.118,1.927,6.175,3.95,9.311,5.849,6.787,4.11,13.742,7.935,20.746,11.661,1.333.709,2.667,1.415,4.003,2.118,1.155.608,3.098,1.191,4.013,2.106.816.816,2.115.887,2.942,1.697.503.493,1.015,1.27,1.356,1.891.835,1.523.795,3.173-.388,4.509,3.634-4.109,7.828-7.846,11.718-11.715,2.015-2.005,4.036-4.005,6.065-5.995,1.851-1.816,3.982-3.523,5.137-5.9,1.467-3.019.576-6.27-1.88-8.514-.535-.49-1.132-.886-1.771-1.213Z" fill="url(#linear-gradient)"/>
    <path d="M32.27,29.523s-5.909-2.246-12.094,5.045l-8.846,8.431s-8.533,8.187-5.668,13.129c2.725,4.7,5.797,5.984,10.781,7.258l5.77,1.14,6.911,1.313,21.423,3.732,16.655,2.35s7.598.86,7.636.864c2.84.321,6.024-.852,7.774-3.144,0,0,3.351-4.388-4.076-8.983-4.09-2.531-8.565-4.439-12.752-6.808l-15.445-8.742s4.561-3.939-4.561-8.776l-13.51-6.807Z" fill="url(#linear-gradient-2)"/>
    <path d="M48.051,37.194c-1.809-1.037-3.752-1.887-5.607-2.845l-7.25-3.746c-1.901-.982-4.072-2.116-6.285-1.896-3.279.327-5.603,2.568-7.859,4.726-2.195,2.099-4.384,4.204-6.57,6.311-2.118,2.041-4.334,3.984-6.114,6.328-1.601,2.108-3.334,4.852-3.108,7.617.052.641.206,1.292.481,1.874-.291-.746-.155-1.654.097-2.393,1.469-4.307,8.051-4.439,11.704-5.103-1.324.241-2.649.482-3.973.723,1.813-.329,3.772-.311,5.611-.418,1.911-.112,3.823-.192,5.736-.242,3.039-.079,6.08-.048,9.12-.044,2.881.003,5.861-.03,8.733-.39,3.356-.422,8.679-1.421,8.794-5.72.058-2.194-1.761-3.78-3.509-4.782Z" fill="url(#linear-gradient-3)"/>
  </g>
  <g>
    <path d="M100.452,11.594h34.373v11.803s.034,0-3.266,0c.09,0-2.553,0-3.098,0,.763,0-3.655,0-1.524,0,.768,0-1.779,0-3.362,0-1.027,0-.631,0,.798,0,3.395,0-.271,0-.061,0h-3.368c-.378,0,.822,0-.943,0,1.074,0-1.879,0-2.813,0,.502,0-2.266,0-3.266,0-3.554,0,.283.333-.46.888-2.339.555,1.556,1.332.46,2.219,3.156.444-1.145.915-.062,1.401-1.927.485-.553.985-.978,1.484-2.108.499.949.999-.381,1.484.496.485,1.292.957,1.421,1.401v3.107h19.327v11.758h-19.327v9.73c0,.368-.814.739-1.222,1.111-3.34.372-3.245.746,1.222,1.12.373.374-1.331.748-.848,1.12-4.687.372-1.043.743,1.658,1.111,4.919.368,1.701.733-.342,1.094-1.439.18-.931.36-2.582.537,1.762.178-3.798.355.857.53-.333.35,4.382.695,1.08,1.032-3.468.337-.956.667-.478.988-2.046.642,2.752,1.25.656,1.81,3.071.28-.889.549-.563.804-2.666.256-1.936.498,2.769.726-1.25.456.384.853-1.92,1.18-1.566.654-.287,1.028-.287,1.028h-13.47v-1.534c2.944-.247-2.054-.521,1.743-.822.654-.3.477-.627-2.596-.978,3.274-.175,1.801-.357.868-.544-2.521-.187.641-.381-2.958-.579.372-.199-.505-.403.271-.613-2.918-.105,3.181-.211,2.696-.319.382-.108-.052-.217-.024-.327-5.964-.221.771-.447-1.503-.678-.509-.231,2.086-.467,1.796-.708-4.188-.482-3.373-.983-1.311-1.502,1.969-.519-1.843-1.056.8-1.609-2.527-.553-4.816-1.122.219-1.706,2.87-.292-2.291-.587,1.588-.886-.529-.299-1.588-.601-1.588-.907v-24.822c-.631-.714-.466-1.42.282-2.117.088-.697,3.823-1.384,1.001-2.061-2.312-.676-1.377-1.342-2.361-1.994-1.14-.652-.534-1.292,1.077-1.916-1.12-.624-1.181-1.234-2.574-1.827-2.011-.593.937-1.169,1.032-1.726,3.054-.558,1.259-1.096.783-1.615-1.566-.518-.514-1.017.759-1.492v-6.185Z" fill="url(#linear-gradient-4)"/>
    <path d="M144.15,11.594h13.47v15.081c3.555.698.34,1.408.646,2.127-.519.359.46.721,2.494,1.084,1.213.363.148.728-1.342,1.095,3.175.733,1.254,1.472-.913,2.214-4.542.371-1.659.743-2.813,1.115.311.372-1.282.744,1.927,1.117.898.745-.336,1.489.549,2.231,3.108.371,2.249.741.712,1.11-.62.369-1.637.737-1.668,1.104.068.733.17,1.46.407,2.179v17.208h21.579v11.803h-35.049v-1.665c0-.535.174-1.189.261-1.948,1.134-.19,1.992-.386,2.296-.588s.256-.411-1.035-.626c-3.852-.107,1.897-.216,2.404-.326s.515-.222-.588-.335c-1.361-.226-2.71-.459-3.338-.697,1.338-.476,1.173-.974.546-1.492,5.394-.518,2.703-1.057-.392-1.615,1.045-.558-.064-1.134-.154-1.726v-22.884c3.128-.334-.797-.667-.617-.999-1.824-.332.853-.664.481-.994,1.157-.661-3.191-1.317-.702-1.968.285-.651,1.671-1.296.251-1.934-3.315-.319-1.613-.636-1.94-.952-2.213-.315.266-.629,2.527-.94,3.654-.623-.819-1.237.967-1.842-.322-.605-.967-1.199-.967-1.783v-14.153Z" fill="url(#linear-gradient-5)"/>
    <path d="M220.601,11.594h13.471v33.83c5.439.423,3.084.803.995,1.136,3.713.333,2.155.618-2.414.851-4.093.465,1.322.719,1.419.719,3.171.816,1.27,1.614.182,2.393-.958.195-1.267.389-3.387.581.612.193,5.477.384,1.615.575,1.212.381,7.322.757,1.27,1.129-1.689.186-4.446.371-1.523.554-2.56.184,7.422.366.475.547,2.69.181,1.33.361,3.408.541-2.893.179,4.15.357-1.517.534-1.679.354-1.469.703-2.847,1.047-2.288.344-3.982.684,1.043,1.02-4.536.671-.454,1.323-.721,1.958-.267.634-.561,1.251-.881,1.849-1.923,3.589-4.67,6.367-8.245,8.335-3.574,1.966-7.839,2.951-12.794,2.951-4.986,0-9.281-.985-12.885-2.951-3.604-1.967-6.36-4.745-8.266-8.335-1.908-3.589-2.861-7.831-2.861-12.727v-9.472c.927-.338,1.202-.682-1.916-1.03-1.403-.348.956-.701.649-1.058.966-.357-3.644-.718-.615-1.082,2.524-.364,4.246-.731,1.092-1.101-2.265-.37-2.299-.743-2.035-1.117-3.382-.375,3.092-.751,1.809-1.129-.446-.756,1.277-1.517,1.016-2.278,2.914-.381,3.23-.761,2.097-1.141-1.037-.38,1.145-.759-2.215-1.137-3.308-.756-.413-1.506-.652-2.246.128-.74.321-1.469.77-2.183v-11.56h13.425v17.908c1.254.373,1.092.746,1.516,1.119.299.372.671.744-2.572,1.115,2.244.37.186.74-2.215,1.107-.45.367.499.733,1.58,1.095-1.53.725,2.224,1.44.845,2.14.188.7.377,1.383.846,2.047v9.285c-.061.338-1.811.669.575.994.27.325,3.447.643-.467.954-4.931.312,2,.617-1.301.915-2.008.298-4.801.59,1.513.876-4.857.571-2.56,1.115.36,1.633,4.951.259,5.82.511.823.757-3.821.246,1.689.485-.22.718,4.588.233-.592.459.641.677,5.11.219,2.458.43,1.781.634-1.923.408-1.168.788-.862,1.139.612.702,1.316,1.289,2.112,1.762,1.591.946,3.469,1.419,5.631,1.419,2.132,0,3.979-.473,5.541-1.419.781-.473,3.87-1.06,2.078-1.762,3.129-.175.79-.358,1.886-.548-.981-.19.239-.387-.032-.591-.984-.408-2.909-.845-.306-1.311-2.249-.465-2.408-.957.178-1.475,5.918-.518.561-1.062.785-1.633-.264-.285,5.67-.577,2.017-.876.594-.298-5.652-.603-1.922-.915,2.408-.312,3.209-.63-1.755-.954-.384-.325-4.693-.656,1.98-.994-1.922,0,5.027-.062,2.765-.181-.292-.119,5.944-.295-1.107-.523.102-.228-14.226-.508-3.251-.834-4.136-.326.123-.7,1.593-1.114V11.594Z" fill="url(#linear-gradient-6)"/>
    <path d="M279.165,39.075s6.413,9.18,12.368,17.703l1.183,1.693c1,.28,2.273.558,2.055.835-1.072.276-3.089.551.047.824-.618.545-4.359,1.081.894,1.606.682.131.429.262,2.459.391-1.511.13-.889.258.196.387,5.553.256-4.202.509.052.758-.392.498-2.593.982-1.338,1.448,3.896.466,1.688.915-.885,1.343,1.528.428,3.65.836,1.579,1.221,1.515.769-.722,1.445,2.498,2.005,6.043.56-.03,1.002-.69,1.306.746.303,1.927.466,1.927.466h-17.569l-1.429-2.16c-.397-.332-1.222-.696-1.784-1.085-2.456-.389-2.655-.805-.207-1.241-1.763-.436-2.97-.893-1.346-1.366-1.219-.472-4.918-.961-.071-1.459-.775-.249,5.276-.501,2.423-.755-2.78-.254-2.079-.509-2.44-.766-1.601-.514-1.673-1.033-2.016-1.552-3.435-5.192-6.87-10.384-6.87-10.384l-13.29,20.768h-16.218l7.205-10.931,1.093-1.658c.808-.56,1.236-1.125,1.532-1.693-5.975-.568,4.291-1.139.745-1.711-.627-.143,1.753-.286,2.371-.428,1.222-.143-1.009-.285-.177-.428-1.06-.285-.543-.57-.58-.854-.888-.568,2.866-1.134.596-1.693,1.392-.14,1.928-.279,2.422-.418-7.86-.139,4.363-.278.249-.416.355-.276,3.613-.551.231-.824,2.942-.545.399-1.081-.161-1.606.495-1.049.763-2.052,1.377-2.984l4.18-6.341s-7.479-10.735-13.088-18.786l-1.094-1.57c-1.421-.509-3.236-1.002-2.538-1.475-.006-.473-.123-.926.87-1.356,2.668-.429-1.27-.835-.718-1.213-3.468-.378-.093-.728-1.16-1.046,1.136-1.272-.038-2.036-1.418-2.036-.435,0,3.272,0,1.205,0,.413,0-1.063,0,3.233,0-.503,0-.48,0,2.875,0-1.427,0,.582,0,1.345,0,2.475,0-.824,0,1.74,0-1.306,0,3.195,0,2.283,0,.055,0,2.386,0,2.115,0,.32,0,2.899,0,1.945,0,.351,0,1.848,0,.378,0,.102,0,2.438.186,2.074.519.13.333.654.813-.842,1.401,2.708.588,2.088,1.285,2.38,2.051-3.949.766-1.55,1.602.522,2.469,3.276.867-2.594,1.765,1.17,2.655.75.89,1.673,1.772,2.209,2.608.644,1.003,1.245,1.939,1.76,2.742-.31.401.748.769,1.422,1.095.137.326-4.146.61-.876.844-.864.468-2.231.736,1.172.736,3.366,0-2.612-.267,1.403-.736.233-.234.654-.518.934-.844-2.541-.326-1.328-.694-.64-1.095.509-.802,1.103-1.739,1.739-2.742.53-.836,1.302-1.718,1.972-2.608.887-.445,2.344-.892,1.614-1.336-.35-.444-.049-.885-.248-1.319,2.179-.867,1.676-1.703.698-2.469,3.198-.766,1.745-1.463,2.169-2.051-3.24-1.176,2.985-1.919,1.217-1.919-1.862,0,2.006,0,.793,0h1.936c1.281,0,2.566,0,1.523,0,2.449,0-.697,0,3.097,0,3.397,0,.748,0,2.972,0-2.332,0,3.166,0,1.827,0,1.893,0,.077,0,1.351,0,1.577,0,3.788,0,2.751,0-.487,0,1.07,0,.15,0-3.163,0,1.257.16-.734.457,1.607.296,1.295.728-.45,1.272,1.115.272.059.571-1.739.896-.587.324-1.913.673-.651,1.044,2.997.371-1.343.763-.774,1.175.824.411-1.436.841.149,1.286l-1.943,2.835c-.679.991-1.384,2.02-2.099,3.062l-1.174,1.714c-.241.573-1.09,1.145-2.102,1.714-2.061.569,3.102,1.133-.126,1.69,3.11.557,2.741,1.105.496,1.642-1.053.268-2.935.534-2.413.796.303.262,1.756.52-.389.775-2.039.509-3.085,1.002-1.29,1.475,1.526.473,3.156.926-.891,1.356,1.39.215,1.216.423,2.203.626.552.202-3.113.398-2.538.587-2.098.378-1.786.728-.972,1.046l-1.395,2.036Z" fill="url(#linear-gradient-7)"/>
  </g>
</svg>